HIERARCHY
ROOT hip
{
  OFFSET 0 0 0
  CHANNELS 6 Xposition Yposition Zposition Zrotation Yrotation Xrotation
  JOINT abdomen
  {
    OFFSET 0 20.6881 -0.73152
    CHANNELS 3 Zrotation Xrotation Yrotation
    JOINT chest
    {
      OFFSET 0 11.7043 -0.48768
      CHANNELS 3 Zrotation Xrotation Yrotation
      JOINT neck
      {
        OFFSET 0 22.1894 -2.19456
        CHANNELS 3 Zrotation Xrotation Yrotation
        JOINT head
        {
          OFFSET -0.24384 7.07133 1.2192
          CHANNELS 3 Zrotation Xrotation Yrotation
          JOINT leftEye
          {
            OFFSET 4.14528 8.04674 8.04672
            CHANNELS 3 Zrotation Xrotation Yrotation
            End Site
            {
              OFFSET 1 0 0
            }
          }
          JOINT rightEye
          {
            OFFSET -3.6576 8.04674 8.04672
            CHANNELS 3 Zrotation Xrotation Yrotation
            End Site
            {
              OFFSET 1 0 0
            }
          }
        }
      }
      JOINT rCollar
      {
        OFFSET -2.68224 19.2634 -4.8768
        CHANNELS 3 Zrotation Xrotation Yrotation
        JOINT rShldr
        {
          OFFSET -8.77824 -1.95073 1.46304
          CHANNELS 3 Zrotation Xrotation Yrotation
          JOINT rForeArm
          {
            OFFSET -28.1742 -1.7115 0.48768
            CHANNELS 3 Zrotation Xrotation Yrotation
            JOINT rHand
            {
              OFFSET -22.5879 0.773209 7.07136
              CHANNELS 3 Zrotation Xrotation Yrotation
              JOINT rThumb1
              {
                OFFSET -1.2192 -0.487915 3.41376
                CHANNELS 3 Zrotation Xrotation Yrotation
                JOINT rThumb2
                {
                  OFFSET -3.37035 -0.52449 3.41376
                  CHANNELS 3 Zrotation Xrotation Yrotation
                  End Site
                  {
                    OFFSET -1.78271 -1.18214 1.43049
                  }
                }
              }
              JOINT rIndex1
              {
                OFFSET -7.75947 0.938293 5.60832
                CHANNELS 3 Zrotation Xrotation Yrotation
                JOINT rIndex2
                {
                  OFFSET -2.54057 -0.884171 1.56538
                  CHANNELS 3 Zrotation Xrotation Yrotation
                  End Site
                  {
                    OFFSET -1.62519 -0.234802 1.16502
                  }
                }
              }
              JOINT rMid1
              {
                OFFSET -8.24714 1.18213 3.41376
                CHANNELS 3 Zrotation Xrotation Yrotation
                JOINT rMid2
                {
                  OFFSET -3.10165 -0.590103 1.0647
                  CHANNELS 3 Zrotation Xrotation Yrotation
                  End Site
                  {
                    OFFSET -2.48547 -0.328903 0.83742
                  }
                }
              }
              JOINT rRing1
              {
                OFFSET -8.82822 0.546677 1.51678
                CHANNELS 3 Zrotation Xrotation Yrotation
                JOINT rRing2
                {
                  OFFSET -2.60934 -0.819778 -0.0198488
                  CHANNELS 3 Zrotation Xrotation Yrotation
                  End Site
                  {
                    OFFSET -2.33842 -0.294052 0.168128
                  }
                }
              }
              JOINT rPinky1
              {
                OFFSET -8.27202 -0.0477905 -0.4584
                CHANNELS 3 Zrotation Xrotation Yrotation
                JOINT rPinky2
                {
                  OFFSET -1.82734 -0.647385 -0.700984
                  CHANNELS 3 Zrotation Xrotation Yrotation
                  End Site
                  {
                    OFFSET -1.69225 -0.51767 -0.607171
                  }
                }
              }
            }
          }
        }
      }
      JOINT lCollar
      {
        OFFSET 2.68224 19.2634 -4.8768
        CHANNELS 3 Zrotation Xrotation Yrotation
        JOINT lShldr
        {
          OFFSET 8.77824 -1.95073 1.46304
          CHANNELS 3 Zrotation Xrotation Yrotation
          JOINT lForeArm
          {
            OFFSET 28.1742 -1.7115 0.48768
            CHANNELS 3 Zrotation Xrotation Yrotation
            JOINT lHand
            {
              OFFSET 22.5879 0.773209 7.07136
              CHANNELS 3 Zrotation Xrotation Yrotation
              JOINT lThumb1
              {
                OFFSET 1.2192 -0.487915 3.41376
                CHANNELS 3 Zrotation Xrotation Yrotation
                JOINT lThumb2
                {
                  OFFSET 3.37035 -0.52449 3.41376
                  CHANNELS 3 Zrotation Xrotation Yrotation
                  End Site
                  {
                    OFFSET 1.78271 -1.18214 1.43049
                  }
                }
              }
              JOINT lIndex1
              {
                OFFSET 7.75947 0.938293 5.60832
                CHANNELS 3 Zrotation Xrotation Yrotation
                JOINT lIndex2
                {
                  OFFSET 2.54057 -0.884171 1.56538
                  CHANNELS 3 Zrotation Xrotation Yrotation
                  End Site
                  {
                    OFFSET 1.62519 -0.234802 1.16502
                  }
                }
              }
              JOINT lMid1
              {
                OFFSET 8.24714 1.18213 3.41376
                CHANNELS 3 Zrotation Xrotation Yrotation
                JOINT lMid2
                {
                  OFFSET 3.10165 -0.590103 1.0647
                  CHANNELS 3 Zrotation Xrotation Yrotation
                  End Site
                  {
                    OFFSET 2.48547 -0.328903 0.83742
                  }
                }
              }
              JOINT lRing1
              {
                OFFSET 8.82822 0.546677 1.51678
                CHANNELS 3 Zrotation Xrotation Yrotation
                JOINT lRing2
                {
                  OFFSET 2.60934 -0.819778 -0.0198488
                  CHANNELS 3 Zrotation Xrotation Yrotation
                  End Site
                  {
                    OFFSET 2.33842 -0.294052 0.168128
                  }
                }
              }
              JOINT lPinky1
              {
                OFFSET 8.27202 -0.0477905 -0.4584
                CHANNELS 3 Zrotation Xrotation Yrotation
                JOINT lPinky2
                {
                  OFFSET 1.82734 -0.647385 -0.700984
                  CHANNELS 3 Zrotation Xrotation Yrotation
                  End Site
                  {
                    OFFSET 1.69225 -0.51767 -0.607171
                  }
                }
              }
            }
          }
        }
      }
    }
  }
  JOINT rButtock
  {
    OFFSET -8.77824 4.35084 1.2192
    CHANNELS 3 Zrotation Xrotation Yrotation
    JOINT rThigh
    {
      OFFSET 0 -1.70687 -2.19456
      CHANNELS 3 Zrotation Xrotation Yrotation
      JOINT rShin
      {
        OFFSET 0 -36.8199 0.73152
        CHANNELS 3 Zrotation Xrotation Yrotation
        JOINT rFoot
        {
          OFFSET 0.73152 -45.1104 -5.12064
          CHANNELS 3 Zrotation Xrotation Yrotation
          End Site
          {
            OFFSET -1.1221 -3.69964 12.103
          }
        }
      }
    }
  }
  JOINT lButtock
  {
    OFFSET 8.77824 4.35084 1.2192
    CHANNELS 3 Zrotation Xrotation Yrotation
    JOINT lThigh
    {
      OFFSET 0 -1.70687 -2.19456
      CHANNELS 3 Zrotation Xrotation Yrotation
      JOINT lShin
      {
        OFFSET 0 -36.8199 0.73152
        CHANNELS 3 Zrotation Xrotation Yrotation
        JOINT lFoot
        {
          OFFSET -0.73152 -45.1104 -5.12064
          CHANNELS 3 Zrotation Xrotation Yrotation
          End Site
          {
            OFFSET 1.1221 -3.69964 12.103
          }
        }
      }
    }
  }
}
MOTION
Frames:	4
Frame Time:	0.03333
0.5257118493318558 -7.362700253725052 -1.3969444669783115 1.0500187873840332 13.20542049407959 5.510415554046631 -10.932355880737305 8.441193580627441 -12.066916465759277 9.202113151550293 -6.343988418579102 -2.9336130619049072 -9.824301719665527 24.393108367919922 -19.519990921020508 19.34052085876465 -21.52021026611328 -35.25053024291992 0.1560830920934677 0.0950082391500473 0.042337626218795776 -0.06815870106220245 -0.036423128098249435 0.0625181645154953 0.14292755722999573 0.027838541194796562 0.011855268850922585 64.91067504882812 36.16615295410156 -0.5992549061775208 -18.61279296875 -11.553689956665039 35.286399841308594 0.17831766605377197 1.5372778177261353 0.2577688992023468 -0.01626693457365036 0.0034010671079158783 0.2303854376077652 0.20275446772575378 -0.15790903568267822 -0.012981985695660114 0.09017685800790787 0.10215014219284058 -0.004971608519554138 7.830794334411621 5.455946922302246 0.38989681005477905 -0.043844737112522125 -0.0777781680226326 0.028637060895562172 3.085780620574951 0.9875375032424927 0.2671457827091217 0.0425599180161953 0.09725712239742279 0.19046105444431305 10.380889892578125 0.8015254139900208 0.12255588918924332 0.10782598704099655 0.4019542932510376 -0.15901602804660797 2.0951027870178223 -0.7988396286964417 -0.21920180320739746 -0.15808187425136566 -0.08339443802833557 0.10654406994581223 -72.71540069580078 31.13846206665039 -7.832742691040039 17.221094131469727 -10.08038330078125 -32.37604522705078 0.36135047674179077 10.294939041137695 -1.5274219512939453 0.046734243631362915 -0.08365479111671448 0.04742572084069252 -0.05446789786219597 -0.19426347315311432 -0.05627203732728958 0.06145709753036499 -0.10625579208135605 0.07720404118299484 -7.497797012329102 5.315776348114014 -0.4077702760696411 0.15423272550106049 -0.1660546064376831 -0.061745453625917435 -2.694610834121704 1.1474432945251465 -0.1302453726530075 -0.04004177823662758 0.2986188232898712 0.06860223412513733 -10.169004440307617 0.6884381175041199 -0.13089725375175476 0.16610218584537506 -0.0515715517103672 0.2237435132265091 -2.292818307876587 -0.8424664735794067 0.245270773768425 -0.054792359471321106 -0.03593571111559868 0.07958012074232101 -36.624691009521484 -62.55567169189453 -32.68610763549805 -2.0304596424102783 69.77449035644531 2.5428900718688965 2.516474485397339 -6.428225040435791 14.937381744384766 0.016232691705226898 -0.19201819598674774 -0.1351107805967331 4.718813419342041 7.825106620788574 4.081140518188477 -0.37040582299232483 35.72305679321289 -2.3347010612487793 22.242084503173828 -20.996557235717773 40.92575454711914
0.5418412387371063 -7.329536974430084 -1.4365479350090027 1.0568723678588867 13.738263130187988 5.402281761169434 -10.746164321899414 8.422950744628906 -11.623678207397461 9.10164737701416 -6.267203330993652 -2.7799510955810547 -9.692825317382812 24.23600196838379 -19.065256118774414 18.999225616455078 -21.58485221862793 -34.657127380371094 0.15161925554275513 0.042069245129823685 0.08287589997053146 -0.11465805768966675 -0.12179092317819595 0.05844517797231674 0.14667539298534393 -0.022810745984315872 0.049214888364076614 64.55879211425781 35.80479431152344 0.010297199711203575 -18.72304344177246 -11.65416145324707 35.59226989746094 0.23866166174411774 1.5881773233413696 0.21921837329864502 0.018410073593258858 0.008305496536195278 0.19492998719215393 0.18859238922595978 -0.21956661343574524 -0.0074030933901667595 0.11435042321681976 0.16915328800678253 -0.01959744654595852 7.8371710777282715 5.408891201019287 0.3707031011581421 -0.07715582847595215 -0.07910727709531784 -0.006309316959232092 3.0555317401885986 0.974391758441925 0.1849128156900406 0.02287038043141365 0.0620788037776947 0.1833941638469696 10.390079498291016 0.8264042735099792 0.07669587433338165 0.15996281802654266 0.3951602876186371 -0.23442043364048004 2.0866243839263916 -0.8786646723747253 -0.21782943606376648 -0.15701691806316376 -0.09361589699983597 0.09610117971897125 -73.10352325439453 32.00215148925781 -7.568687438964844 17.305089950561523 -10.205124855041504 -32.531333923339844 0.3941434919834137 9.9218168258667 -1.3895241022109985 0.034672047942876816 -0.06083930656313896 0.02414928749203682 -0.05520351603627205 -0.18143515288829803 0.0010169894667342305 0.028155801817774773 -0.15390898287296295 0.0846370980143547 -7.556187629699707 5.292015552520752 -0.37922918796539307 0.16762585937976837 -0.18620581924915314 -0.05804779380559921 -2.6641809940338135 1.2247157096862793 -0.14341703057289124 -0.07342564314603806 0.30794116854667664 0.07229675352573395 -10.200806617736816 0.6622849106788635 -0.08152345567941666 0.19015873968601227 -0.06975460052490234 0.2776776850223541 -2.290642738342285 -0.8050878643989563 0.25408729910850525 -0.06113896891474724 -0.05580415576696396 0.08322156965732574 -36.661617279052734 -62.25041580200195 -32.62324523925781 -2.2553937435150146 69.86978149414062 2.7140607833862305 2.4966177940368652 -6.5683979988098145 14.822271347045898 0.07935524731874466 -0.23352578282356262 -0.15061736106872559 4.957744598388672 7.242766380310059 3.9696362018585205 -0.35397791862487793 36.11458206176758 -2.3146517276763916 22.000774383544922 -20.991390228271484 40.432640075683594
0.5521541461348534 -7.359452545642853 -1.47443525493145 1.6666792631149292 13.175368309020996 5.573861122131348 -11.136893272399902 8.709467887878418 -11.788680076599121 8.92819595336914 -6.301241397857666 -2.9175047874450684 -9.694994926452637 24.168119430541992 -19.06602668762207 18.891448974609375 -21.610157012939453 -34.616825103759766 0.037147607654333115 -0.053901493549346924 -0.0001652514620218426 -0.028400102630257607 -0.016939621418714523 0.09380532801151276 0.059017181396484375 0.11721644550561905 -0.018137186765670776 64.97209930419922 36.91971969604492 -0.8961869478225708 -19.00704002380371 -11.977386474609375 36.16879653930664 0.18378473818302155 1.303994059562683 0.151327446103096 -0.039350029081106186 0.001407172647304833 0.1981486678123474 0.21825934946537018 -0.11581685394048691 0.154989555478096 0.06921059638261795 0.2710341513156891 -0.06882664561271667 7.7762017250061035 5.4437174797058105 0.34490126371383667 -0.18488262593746185 0.031977251172065735 -0.0765642449259758 3.004793882369995 0.9416992664337158 0.2924215793609619 0.0873941034078598 0.035748790949583054 0.08535072952508926 10.371871948242188 0.8047128319740295 0.07318594306707382 0.08421660959720612 0.247110515832901 -0.1527998447418213 2.1672637462615967 -0.9005917906761169 -0.1971825808286667 -0.10583063215017319 -0.10137216001749039 0.045427341014146805 -72.91644287109375 31.950435638427734 -7.962108135223389 17.42436408996582 -10.245965957641602 -32.74059295654297 0.21556368470191956 9.791912078857422 -1.4890146255493164 -0.04623311012983322 -0.09036970883607864 -0.004944953136146069 -0.009062088094651699 -0.1198473647236824 -0.04132677614688873 0.014045973308384418 -0.03613899648189545 -0.029629338532686234 -7.546375751495361 5.3616719245910645 -0.42412805557250977 0.05302560329437256 -0.09002885222434998 -0.07672658562660217 -2.6049890518188477 1.237873911857605 -0.22242873907089233 -0.12986624240875244 0.32421088218688965 0.11058267205953598 -10.214561462402344 0.6434327960014343 -0.17671583592891693 0.19152018427848816 -0.022854674607515335 0.21304583549499512 -2.300598382949829 -0.8287550806999207 0.22344177961349487 -0.0055930037051439285 0.013917447999119759 0.06898827850818634 -36.59812927246094 -62.761600494384766 -32.22664260864258 -2.0431060791015625 69.84085083007812 2.462163209915161 2.4703845977783203 -6.511605739593506 14.199936866760254 0.01860448345541954 -0.05981440469622612 -0.11874005943536758 4.522720813751221 8.046844482421875 3.56731915473938 -0.5240178108215332 35.488853454589844 -2.331666946411133 22.206878662109375 -21.1022891998291 41.264522552490234
0.5597369745373726 -7.362537831068039 -1.504625752568245 2.2874372005462646 13.074272155761719 5.844855308532715 -11.100202560424805 8.59206771850586 -11.763580322265625 8.911803245544434 -6.251769065856934 -2.9091365337371826 -9.502033233642578 24.259431838989258 -18.934328079223633 18.683534622192383 -21.839576721191406 -34.322017669677734 0.006390911992639303 -0.02327629365026951 -0.03863408789038658 0.012424197047948837 0.09179627895355225 0.05869392678141594 0.03036860004067421 0.09368975460529327 -0.04645898565649986 64.32111358642578 37.37971115112305 -0.4470093548297882 -19.19212532043457 -12.102564811706543 36.381404876708984 0.18552999198436737 2.064760208129883 0.35234278440475464 -0.003507883520796895 -0.03896036371588707 0.2602303922176361 0.30368301272392273 -0.1110275387763977 0.11193367838859558 0.07637044042348862 0.26500457525253296 -0.08932019025087357 7.733001232147217 5.5050225257873535 0.3721383512020111 -0.1657608151435852 -0.06180255487561226 -0.053552884608507156 2.970602512359619 0.9605306386947632 0.34942615032196045 0.09124816954135895 -0.024539995938539505 0.04564954340457916 10.353110313415527 0.8299654722213745 0.058584436774253845 0.01493141334503889 0.3089306056499481 -0.1643843948841095 2.1955723762512207 -0.8485186100006104 -0.2312462329864502 -0.15464259684085846 -0.053317468613386154 0.07960005104541779 -72.95662689208984 32.1216926574707 -7.590536594390869 17.61758041381836 -10.371870040893555 -33.16910934448242 0.22744174301624298 10.010693550109863 -1.488828420639038 -0.009122849442064762 -0.04315954074263573 -0.023087408393621445 0.07214590162038803 -0.09810531884431839 -0.05195258930325508 0.03893488273024559 -0.08065202832221985 -0.04522620886564255 -7.5492472648620605 5.300950527191162 -0.4097643494606018 0.04819245636463165 -0.07472049444913864 -0.03639660030603409 -2.5197343826293945 1.245394229888916 -0.19658687710762024 -0.084365114569664 0.287309855222702 0.11432541906833649 -10.22397518157959 0.6040884256362915 -0.24526074528694153 0.18034498393535614 0.012368358671665192 0.17477530241012573 -2.2408547401428223 -0.8067235350608826 0.16551701724529266 0.017186351120471954 0.024860860779881477 0.03154813125729561 -37.02384567260742 -63.05568313598633 -32.62100601196289 -2.000908136367798 70.44164276123047 2.499697208404541 2.535858392715454 -6.018933296203613 14.074287414550781 0.04459318891167641 -0.03804450109601021 -0.1173797994852066 4.341953754425049 8.106523513793945 3.796490430831909 -0.4859802722930908 35.60772705078125 -2.35740327835083 22.089014053344727 -21.33516502380371 41.28086853027344
